<?xml version="1.0" encoding="utf-8"?>
<!-- Svg Vector Icons : http://www.onlinewebfonts.com/icon -->
<!DOCTYPE svg PUBLIC "-//W3C//DTD SVG 1.1//EN" "http://www.w3.org/Graphics/SVG/1.1/DTD/svg11.dtd">
<svg version="1.1" xmlns="http://www.w3.org/2000/svg" xmlns:xlink="http://www.w3.org/1999/xlink" x="0px" y="0px" viewBox="0 0 1000 1000" enable-background="new 0 0 1000 1000" xml:space="preserve">
<metadata> Svg Vector Icons : http://www.onlinewebfonts.com/icon </metadata>
<g><path d="M676.1,500l-290,167.5l0-334.9L676.1,500z"/><path d="M500,9.1C229.4,9.1,10,228.9,10,500c0,271.1,219.4,490.9,490,490.9c270.6,0,490-219.8,490-490.9C990,228.9,770.6,9.1,500,9.1L500,9.1z M500,965.7C243.1,965.7,34.8,757,34.8,499.6C34.8,242.1,243.1,33.4,500,33.4c256.9,0,465.2,208.7,465.2,466.1C965.2,757,756.9,965.7,500,965.7z"/></g>
</svg>